ffmpeg started on 2026-01-13 at 10:22:57
Report written to "D:\Convert\FFMetrics\reports\ssim_report-6.txt"
Log level: 32
Command line:
ffmpeg -hide_banner -nostdin -r 24000/1001 -i "F:\\Convert\\files\\[DC] Make Heroine ga Oosugiru - 07_Telegram_HEVC(115).mkv" -r 24000/1001 -i "F:\\Convert\\files\\[DC] Make Heroine ga Oosugiru - 07_Telegram.mp4" -lavfi "[0:v]settb=AVTB,setpts=PTS-STARTPTS,format=pix_fmts=yuv420p10le,fps=24000/1001,scale=1920:1080:flags=lanczos:param0=3:out_range=limited:out_color_matrix=bt709:out_chroma_loc=left,setsar=1/1,setdar=(1920/1080)*(1/1),colorspace=format=yuv420p10:range=tv:primaries=bt709:trc=bt709:space=bt709:fast=0[main];[1:v]settb=AVTB,setpts=PTS-STARTPTS,format=pix_fmts=yuv420p,fps=24000/1001,scale=1920:1080:flags=lanczos:param0=3:out_range=limited:out_color_matrix=bt709:out_chroma_loc=left,setsar=1.000,setdar=1.778,colorspace=format=yuv420p:range=tv:primaries=bt709:trc=bt709:space=bt709:fast=0[ref];[main][ref]ssim=eof_action=endall:stats_file='D\\:/Convert/FFMetrics/logs/ssim_logfile-6.txt'" -f null -
Input #0, matroska,webm, from 'F:\Convert\files\[DC] Make Heroine ga Oosugiru - 07_Telegram_HEVC(115).mkv':
  Metadata:
    COMPATIBLE_BRANDS: isomiso2avc1mp41
    MAJOR_BRAND     : isom
    MINOR_VERSION   : 512
    ENCODER         : Lavf61.7.100
  Duration: 00:24:06.79, start: -0.021000, bitrate: 1033 kb/s
  Stream #0:0: Video: hevc (Main 10), yuv420p10le(tv, bt709, progressive), 1920x1080 [SAR 1:1 DAR 16:9], 23.98 fps, 23.98 tbr, 1k tbn (default)
      Metadata:
        HANDLER_NAME    : VideoHandler
        VENDOR_ID       : [0][0][0][0]
        ENCODER         : Lavc61.19.100 libx265
        BPS             : 836305
        DURATION        : 00:24:06.569708333
        NUMBER_OF_FRAMES: 34683
        NUMBER_OF_BYTES : 151221744
        _STATISTICS_WRITING_APP: mkvpropedit v94.0 ('Initiate') 64-bit
        _STATISTICS_WRITING_DATE_UTC: 2026-01-12 14:49:40
        _STATISTICS_TAGS: BPS DURATION NUMBER_OF_FRAMES NUMBER_OF_BYTES
  Stream #0:1: Audio: aac (LC), 48000 Hz, stereo, fltp (default)
      Metadata:
        HANDLER_NAME    : SoundHandler
        VENDOR_ID       : [0][0][0][0]
        ENCODER         : Lavc61.19.100 aac
        BPS             : 193194
        DURATION        : 00:24:06.784000000
        NUMBER_OF_FRAMES: 67819
        NUMBER_OF_BYTES : 34938755
        _STATISTICS_WRITING_APP: mkvpropedit v94.0 ('Initiate') 64-bit
        _STATISTICS_WRITING_DATE_UTC: 2026-01-12 14:49:40
        _STATISTICS_TAGS: BPS DURATION NUMBER_OF_FRAMES NUMBER_OF_BYTES
Input #1, mov,mp4,m4a,3gp,3g2,mj2, from 'F:\Convert\files\[DC] Make Heroine ga Oosugiru - 07_Telegram.mp4':
  Metadata:
    major_brand     : isom
    minor_version   : 512
    compatible_brands: isomiso2avc1mp41
    encoder         : Lavf60.16.100
  Duration: 00:24:06.74, start: 0.000000, bitrate: 3764 kb/s
  Stream #1:0[0x1](und): Video: h264 (High) (avc1 / 0x31637661), yuv420p(tv, bt709, progressive), 1920x1080 [SAR 1:1 DAR 16:9], 3616 kb/s, 23.98 fps, 23.98 tbr, 24k tbn (default)
      Metadata:
        handler_name    : VideoHandler
        vendor_id       : [0][0][0][0]
        encoder         : Lavc60.31.102 h264_qsv
  Stream #1:1[0x2](und): Audio: aac (HE-AACv2) (mp4a / 0x6134706D), 48000 Hz, stereo, fltp, 144 kb/s (default)
      Metadata:
        handler_name    : SoundHandler
        vendor_id       : [0][0][0][0]
Stream mapping:
  Stream #0:0 (hevc) -> settb:default
  Stream #1:0 (h264) -> settb:default
  ssim:default -> Stream #0:0 (wrapped_avframe)
  Stream #0:1 -> #0:1 (aac (native) -> pcm_s16le (native))
Output #0, null, to 'pipe:':
  Metadata:
    COMPATIBLE_BRANDS: isomiso2avc1mp41
    MAJOR_BRAND     : isom
    MINOR_VERSION   : 512
    encoder         : Lavf61.7.100
  Stream #0:0: Video: wrapped_avframe, yuv420p10le(tv, bt709, progressive), 1920x1080 [SAR 1:1 DAR 16:9], q=2-31, 200 kb/s, 23.98 fps, 23.98 tbn
      Metadata:
        encoder         : Lavc61.19.100 wrapped_avframe
  Stream #0:1: Audio: pcm_s16le, 48000 Hz, stereo, s16, 1536 kb/s (default)
      Metadata:
        HANDLER_NAME    : SoundHandler
        VENDOR_ID       : [0][0][0][0]
        _STATISTICS_TAGS: BPS DURATION NUMBER_OF_FRAMES NUMBER_OF_BYTES
        BPS             : 193194
        DURATION        : 00:24:06.784000000
        NUMBER_OF_FRAMES: 67819
        NUMBER_OF_BYTES : 34938755
        _STATISTICS_WRITING_APP: mkvpropedit v94.0 ('Initiate') 64-bit
        _STATISTICS_WRITING_DATE_UTC: 2026-01-12 14:49:40
        encoder         : Lavc61.19.100 pcm_s16le
frame=  125 fps=0.0 q=-0.0 size=N/A time=00:00:05.21 bitrate=N/A speed=10.1x    frame=  302 fps=293 q=-0.0 size=N/A time=00:00:12.59 bitrate=N/A speed=12.2x    frame=  498 fps=320 q=-0.0 size=N/A time=00:00:20.77 bitrate=N/A speed=13.3x    frame=  677 fps=328 q=-0.0 size=N/A time=00:00:28.23 bitrate=N/A speed=13.7x    frame=  849 fps=330 q=-0.0 size=N/A time=00:00:35.41 bitrate=N/A speed=13.8x    frame=  992 fps=320 q=-0.0 size=N/A time=00:00:41.37 bitrate=N/A speed=13.3x    frame= 1134 fps=314 q=-0.0 size=N/A time=00:00:47.29 bitrate=N/A speed=13.1x    frame= 1294 fps=314 q=-0.0 size=N/A time=00:00:53.97 bitrate=N/A speed=13.1x    frame= 1454 fps=313 q=-0.0 size=N/A time=00:01:00.64 bitrate=N/A speed=  13x    frame= 1599 fps=310 q=-0.0 size=N/A time=00:01:06.69 bitrate=N/A speed=12.9x    frame= 1745 fps=308 q=-0.0 size=N/A time=00:01:12.78 bitrate=N/A speed=12.8x    frame= 1914 fps=309 q=-0.0 size=N/A time=00:01:19.82 bitrate=N/A speed=12.9x    frame= 2058 fps=307 q=-0.0 size=N/A time=00:01:25.83 bitrate=N/A speed=12.8x    frame= 2180 fps=302 q=-0.0 size=N/A time=00:01:30.92 bitrate=N/A speed=12.6x    frame= 2326 fps=301 q=-0.0 size=N/A time=00:01:37.01 bitrate=N/A speed=12.5x    frame= 2457 fps=298 q=-0.0 size=N/A time=00:01:42.47 bitrate=N/A speed=12.4x    frame= 2582 fps=294 q=-0.0 size=N/A time=00:01:47.69 bitrate=N/A speed=12.3x    frame= 2739 fps=295 q=-0.0 size=N/A time=00:01:54.23 bitrate=N/A speed=12.3x    frame= 2904 fps=296 q=-0.0 size=N/A time=00:02:01.12 bitrate=N/A speed=12.4x    frame= 3084 fps=299 q=-0.0 size=N/A time=00:02:08.62 bitrate=N/A speed=12.5x    frame= 3229 fps=298 q=-0.0 size=N/A time=00:02:14.67 bitrate=N/A speed=12.4x    frame= 3415 fps=301 q=-0.0 size=N/A time=00:02:22.43 bitrate=N/A speed=12.6x    frame= 3591 fps=303 q=-0.0 size=N/A time=00:02:29.77 bitrate=N/A speed=12.6x    frame= 3788 fps=306 q=-0.0 size=N/A time=00:02:37.99 bitrate=N/A speed=12.8x    frame= 3965 fps=308 q=-0.0 size=N/A time=00:02:45.37 bitrate=N/A speed=12.8x    frame= 4151 fps=309 q=-0.0 size=N/A time=00:02:53.13 bitrate=N/A speed=12.9x    frame= 4330 fps=311 q=-0.0 size=N/A time=00:03:00.59 bitrate=N/A speed=  13x    frame= 4510 fps=312 q=-0.0 size=N/A time=00:03:08.10 bitrate=N/A speed=  13x    frame= 4686 fps=313 q=-0.0 size=N/A time=00:03:15.44 bitrate=N/A speed=13.1x    frame= 4871 fps=315 q=-0.0 size=N/A time=00:03:23.16 bitrate=N/A speed=13.1x    frame= 5050 fps=316 q=-0.0 size=N/A time=00:03:30.62 bitrate=N/A speed=13.2x    frame= 5234 fps=317 q=-0.0 size=N/A time=00:03:38.30 bitrate=N/A speed=13.2x    frame= 5409 fps=318 q=-0.0 size=N/A time=00:03:45.60 bitrate=N/A speed=13.3x    frame= 5574 fps=318 q=-0.0 size=N/A time=00:03:52.48 bitrate=N/A speed=13.3x    frame= 5727 fps=317 q=-0.0 size=N/A time=00:03:58.86 bitrate=N/A speed=13.2x    frame= 5912 fps=318 q=-0.0 size=N/A time=00:04:06.57 bitrate=N/A speed=13.3x    frame= 6081 fps=319 q=-0.0 size=N/A time=00:04:13.62 bitrate=N/A speed=13.3x    frame= 6254 fps=319 q=-0.0 size=N/A time=00:04:20.84 bitrate=N/A speed=13.3x    frame= 6430 fps=320 q=-0.0 size=N/A time=00:04:28.18 bitrate=N/A speed=13.3x    frame= 6607 fps=320 q=-0.0 size=N/A time=00:04:35.56 bitrate=N/A speed=13.4x    frame= 6784 fps=321 q=-0.0 size=N/A time=00:04:42.94 bitrate=N/A speed=13.4x    frame= 6955 fps=321 q=-0.0 size=N/A time=00:04:50.08 bitrate=N/A speed=13.4x    frame= 7132 fps=321 q=-0.0 size=N/A time=00:04:57.46 bitrate=N/A speed=13.4x    frame= 7305 fps=322 q=-0.0 size=N/A time=00:05:04.67 bitrate=N/A speed=13.4x    frame= 7485 fps=322 q=-0.0 size=N/A time=00:05:12.18 bitrate=N/A speed=13.4x    frame= 7646 fps=322 q=-0.0 size=N/A time=00:05:18.90 bitrate=N/A speed=13.4x    frame= 7832 fps=323 q=-0.0 size=N/A time=00:05:26.65 bitrate=N/A speed=13.5x    frame= 7979 fps=322 q=-0.0 size=N/A time=00:05:32.79 bitrate=N/A speed=13.4x    frame= 8150 fps=322 q=-0.0 size=N/A time=00:05:39.92 bitrate=N/A speed=13.4x    frame= 8305 fps=322 q=-0.0 size=N/A time=00:05:46.38 bitrate=N/A speed=13.4x    frame= 8488 fps=323 q=-0.0 size=N/A time=00:05:54.02 bitrate=N/A speed=13.5x    frame= 8656 fps=323 q=-0.0 size=N/A time=00:06:01.02 bitrate=N/A speed=13.5x    frame= 8844 fps=323 q=-0.0 size=N/A time=00:06:08.86 bitrate=N/A speed=13.5x    frame= 9017 fps=324 q=-0.0 size=N/A time=00:06:16.08 bitrate=N/A speed=13.5x    frame= 9196 fps=324 q=-0.0 size=N/A time=00:06:23.54 bitrate=N/A speed=13.5x    frame= 9374 fps=325 q=-0.0 size=N/A time=00:06:30.97 bitrate=N/A speed=13.5x    frame= 9567 fps=325 q=-0.0 size=N/A time=00:06:39.02 bitrate=N/A speed=13.6x    frame= 9733 fps=325 q=-0.0 size=N/A time=00:06:45.94 bitrate=N/A speed=13.6x    frame= 9911 fps=326 q=-0.0 size=N/A time=00:06:53.37 bitrate=N/A speed=13.6x    frame=10102 fps=326 q=-0.0 size=N/A time=00:07:01.33 bitrate=N/A speed=13.6x    frame=10274 fps=326 q=-0.0 size=N/A time=00:07:08.51 bitrate=N/A speed=13.6x    frame=10421 fps=326 q=-0.0 size=N/A time=00:07:14.64 bitrate=N/A speed=13.6x    frame=10593 fps=326 q=-0.0 size=N/A time=00:07:21.81 bitrate=N/A speed=13.6x    frame=10776 fps=326 q=-0.0 size=N/A time=00:07:29.44 bitrate=N/A speed=13.6x    frame=10941 fps=326 q=-0.0 size=N/A time=00:07:36.33 bitrate=N/A speed=13.6x    frame=11114 fps=326 q=-0.0 size=N/A time=00:07:43.54 bitrate=N/A speed=13.6x    frame=11263 fps=326 q=-0.0 size=N/A time=00:07:49.76 bitrate=N/A speed=13.6x    frame=11420 fps=326 q=-0.0 size=N/A time=00:07:56.30 bitrate=N/A speed=13.6x    frame=11598 fps=326 q=-0.0 size=N/A time=00:08:03.73 bitrate=N/A speed=13.6x    frame=11764 fps=326 q=-0.0 size=N/A time=00:08:10.65 bitrate=N/A speed=13.6x    frame=11925 fps=326 q=-0.0 size=N/A time=00:08:17.37 bitrate=N/A speed=13.6x    frame=12101 fps=326 q=-0.0 size=N/A time=00:08:24.71 bitrate=N/A speed=13.6x    frame=12246 fps=325 q=-0.0 size=N/A time=00:08:30.76 bitrate=N/A speed=13.6x    frame=12401 fps=325 q=-0.0 size=N/A time=00:08:37.22 bitrate=N/A speed=13.5x    frame=12540 fps=324 q=-0.0 size=N/A time=00:08:43.02 bitrate=N/A speed=13.5x    frame=12705 fps=324 q=-0.0 size=N/A time=00:08:49.90 bitrate=N/A speed=13.5x    frame=12867 fps=324 q=-0.0 size=N/A time=00:08:56.66 bitrate=N/A speed=13.5x    frame=13050 fps=324 q=-0.0 size=N/A time=00:09:04.29 bitrate=N/A speed=13.5x    frame=13197 fps=324 q=-0.0 size=N/A time=00:09:10.42 bitrate=N/A speed=13.5x    frame=13360 fps=324 q=-0.0 size=N/A time=00:09:17.22 bitrate=N/A speed=13.5x    frame=13496 fps=323 q=-0.0 size=N/A time=00:09:22.89 bitrate=N/A speed=13.5x    frame=13657 fps=323 q=-0.0 size=N/A time=00:09:29.61 bitrate=N/A speed=13.5x    frame=13760 fps=321 q=-0.0 size=N/A time=00:09:33.90 bitrate=N/A speed=13.4x    frame=13917 fps=321 q=-0.0 size=N/A time=00:09:40.45 bitrate=N/A speed=13.4x    frame=14078 fps=321 q=-0.0 size=N/A time=00:09:47.16 bitrate=N/A speed=13.4x    frame=14231 fps=321 q=-0.0 size=N/A time=00:09:53.55 bitrate=N/A speed=13.4x    frame=14391 fps=321 q=-0.0 size=N/A time=00:10:00.22 bitrate=N/A speed=13.4x    frame=14562 fps=321 q=-0.0 size=N/A time=00:10:07.35 bitrate=N/A speed=13.4x    frame=14722 fps=321 q=-0.0 size=N/A time=00:10:14.03 bitrate=N/A speed=13.4x    frame=14897 fps=321 q=-0.0 size=N/A time=00:10:21.32 bitrate=N/A speed=13.4x    frame=15069 fps=321 q=-0.0 size=N/A time=00:10:28.50 bitrate=N/A speed=13.4x    frame=15215 fps=321 q=-0.0 size=N/A time=00:10:34.59 bitrate=N/A speed=13.4x    frame=15387 fps=321 q=-0.0 size=N/A time=00:10:41.76 bitrate=N/A speed=13.4x    frame=15558 fps=321 q=-0.0 size=N/A time=00:10:48.89 bitrate=N/A speed=13.4x    frame=15745 fps=321 q=-0.0 size=N/A time=00:10:56.69 bitrate=N/A speed=13.4x    frame=15911 fps=321 q=-0.0 size=N/A time=00:11:03.62 bitrate=N/A speed=13.4x    frame=16064 fps=321 q=-0.0 size=N/A time=00:11:10.00 bitrate=N/A speed=13.4x    frame=16245 fps=321 q=-0.0 size=N/A time=00:11:17.55 bitrate=N/A speed=13.4x    frame=16414 fps=321 q=-0.0 size=N/A time=00:11:24.60 bitrate=N/A speed=13.4x    frame=16584 fps=322 q=-0.0 size=N/A time=00:11:31.69 bitrate=N/A speed=13.4x    frame=16761 fps=322 q=-0.0 size=N/A time=00:11:39.07 bitrate=N/A speed=13.4x    frame=16936 fps=322 q=-0.0 size=N/A time=00:11:46.37 bitrate=N/A speed=13.4x    frame=17119 fps=322 q=-0.0 size=N/A time=00:11:54.00 bitrate=N/A speed=13.4x    frame=17288 fps=322 q=-0.0 size=N/A time=00:12:01.05 bitrate=N/A speed=13.4x    frame=17476 fps=323 q=-0.0 size=N/A time=00:12:08.89 bitrate=N/A speed=13.5x    frame=17645 fps=323 q=-0.0 size=N/A time=00:12:15.94 bitrate=N/A speed=13.5x    frame=17820 fps=323 q=-0.0 size=N/A time=00:12:23.24 bitrate=N/A speed=13.5x    frame=17996 fps=323 q=-0.0 size=N/A time=00:12:30.58 bitrate=N/A speed=13.5x    frame=18179 fps=323 q=-0.0 size=N/A time=00:12:38.21 bitrate=N/A speed=13.5x    frame=18316 fps=323 q=-0.0 size=N/A time=00:12:43.92 bitrate=N/A speed=13.5x    frame=18488 fps=323 q=-0.0 size=N/A time=00:12:51.10 bitrate=N/A speed=13.5x    frame=18668 fps=323 q=-0.0 size=N/A time=00:12:58.61 bitrate=N/A speed=13.5x    frame=18845 fps=323 q=-0.0 size=N/A time=00:13:05.99 bitrate=N/A speed=13.5x    frame=19018 fps=323 q=-0.0 size=N/A time=00:13:13.20 bitrate=N/A speed=13.5x    frame=19210 fps=324 q=-0.0 size=N/A time=00:13:21.21 bitrate=N/A speed=13.5x    frame=19371 fps=324 q=-0.0 size=N/A time=00:13:27.93 bitrate=N/A speed=13.5x    frame=19543 fps=324 q=-0.0 size=N/A time=00:13:35.10 bitrate=N/A speed=13.5x    frame=19721 fps=324 q=-0.0 size=N/A time=00:13:42.53 bitrate=N/A speed=13.5x    frame=19912 fps=324 q=-0.0 size=N/A time=00:13:50.49 bitrate=N/A speed=13.5x    frame=20079 fps=324 q=-0.0 size=N/A time=00:13:57.46 bitrate=N/A speed=13.5x    frame=20265 fps=325 q=-0.0 size=N/A time=00:14:05.21 bitrate=N/A speed=13.5x    frame=20428 fps=325 q=-0.0 size=N/A time=00:14:12.01 bitrate=N/A speed=13.5x    frame=20605 fps=325 q=-0.0 size=N/A time=00:14:19.40 bitrate=N/A speed=13.5x    frame=20735 fps=324 q=-0.0 size=N/A time=00:14:24.82 bitrate=N/A speed=13.5x    frame=20920 fps=324 q=-0.0 size=N/A time=00:14:32.53 bitrate=N/A speed=13.5x    frame=21107 fps=325 q=-0.0 size=N/A time=00:14:40.33 bitrate=N/A speed=13.5x    frame=21279 fps=325 q=-0.0 size=N/A time=00:14:47.51 bitrate=N/A speed=13.5x    frame=21456 fps=325 q=-0.0 size=N/A time=00:14:54.89 bitrate=N/A speed=13.6x    frame=21639 fps=325 q=-0.0 size=N/A time=00:15:02.52 bitrate=N/A speed=13.6x    frame=21819 fps=325 q=-0.0 size=N/A time=00:15:10.03 bitrate=N/A speed=13.6x    frame=21992 fps=325 q=-0.0 size=N/A time=00:15:17.24 bitrate=N/A speed=13.6x    frame=22168 fps=326 q=-0.0 size=N/A time=00:15:24.59 bitrate=N/A speed=13.6x    frame=22338 fps=326 q=-0.0 size=N/A time=00:15:31.68 bitrate=N/A speed=13.6x    frame=22514 fps=326 q=-0.0 size=N/A time=00:15:39.02 bitrate=N/A speed=13.6x    frame=22677 fps=326 q=-0.0 size=N/A time=00:15:45.81 bitrate=N/A speed=13.6x    frame=22848 fps=326 q=-0.0 size=N/A time=00:15:52.95 bitrate=N/A speed=13.6x    frame=22999 fps=325 q=-0.0 size=N/A time=00:15:59.24 bitrate=N/A speed=13.6x    frame=23165 fps=325 q=-0.0 size=N/A time=00:16:06.17 bitrate=N/A speed=13.6x    frame=23331 fps=325 q=-0.0 size=N/A time=00:16:13.09 bitrate=N/A speed=13.6x    frame=23515 fps=326 q=-0.0 size=N/A time=00:16:20.77 bitrate=N/A speed=13.6x    frame=23694 fps=326 q=-0.0 size=N/A time=00:16:28.23 bitrate=N/A speed=13.6x    frame=23885 fps=326 q=-0.0 size=N/A time=00:16:36.20 bitrate=N/A speed=13.6x    frame=24057 fps=326 q=-0.0 size=N/A time=00:16:43.37 bitrate=N/A speed=13.6x    frame=24228 fps=326 q=-0.0 size=N/A time=00:16:50.50 bitrate=N/A speed=13.6x    frame=24378 fps=326 q=-0.0 size=N/A time=00:16:56.76 bitrate=N/A speed=13.6x    frame=24555 fps=326 q=-0.0 size=N/A time=00:17:04.14 bitrate=N/A speed=13.6x    frame=24725 fps=326 q=-0.0 size=N/A time=00:17:11.23 bitrate=N/A speed=13.6x    frame=24905 fps=326 q=-0.0 size=N/A time=00:17:18.74 bitrate=N/A speed=13.6x    frame=25077 fps=326 q=-0.0 size=N/A time=00:17:25.91 bitrate=N/A speed=13.6x    frame=25254 fps=326 q=-0.0 size=N/A time=00:17:33.30 bitrate=N/A speed=13.6x    frame=25393 fps=326 q=-0.0 size=N/A time=00:17:39.09 bitrate=N/A speed=13.6x    frame=25576 fps=326 q=-0.0 size=N/A time=00:17:46.73 bitrate=N/A speed=13.6x    frame=25764 fps=326 q=-0.0 size=N/A time=00:17:54.57 bitrate=N/A speed=13.6x    frame=25940 fps=327 q=-0.0 size=N/A time=00:18:01.91 bitrate=N/A speed=13.6x    frame=26095 fps=326 q=-0.0 size=N/A time=00:18:08.37 bitrate=N/A speed=13.6x    frame=26275 fps=327 q=-0.0 size=N/A time=00:18:15.88 bitrate=N/A speed=13.6x    frame=26440 fps=327 q=-0.0 size=N/A time=00:18:22.76 bitrate=N/A speed=13.6x    frame=26607 fps=327 q=-0.0 size=N/A time=00:18:29.73 bitrate=N/A speed=13.6x    frame=26791 fps=327 q=-0.0 size=N/A time=00:18:37.40 bitrate=N/A speed=13.6x    frame=26959 fps=327 q=-0.0 size=N/A time=00:18:44.41 bitrate=N/A speed=13.6x    frame=27114 fps=327 q=-0.0 size=N/A time=00:18:50.87 bitrate=N/A speed=13.6x    frame=27289 fps=327 q=-0.0 size=N/A time=00:18:58.17 bitrate=N/A speed=13.6x    frame=27454 fps=327 q=-0.0 size=N/A time=00:19:05.06 bitrate=N/A speed=13.6x    frame=27594 fps=326 q=-0.0 size=N/A time=00:19:10.89 bitrate=N/A speed=13.6x    frame=27757 fps=326 q=-0.0 size=N/A time=00:19:17.69 bitrate=N/A speed=13.6x    frame=27925 fps=326 q=-0.0 size=N/A time=00:19:24.70 bitrate=N/A speed=13.6x    frame=28104 fps=326 q=-0.0 size=N/A time=00:19:32.17 bitrate=N/A speed=13.6x    frame=28263 fps=326 q=-0.0 size=N/A time=00:19:38.80 bitrate=N/A speed=13.6x    frame=28423 fps=326 q=-0.0 size=N/A time=00:19:45.47 bitrate=N/A speed=13.6x    frame=28580 fps=326 q=-0.0 size=N/A time=00:19:52.02 bitrate=N/A speed=13.6x    frame=28730 fps=326 q=-0.0 size=N/A time=00:19:58.28 bitrate=N/A speed=13.6x    frame=28877 fps=326 q=-0.0 size=N/A time=00:20:04.41 bitrate=N/A speed=13.6x    frame=29034 fps=325 q=-0.0 size=N/A time=00:20:10.95 bitrate=N/A speed=13.6x    frame=29197 fps=325 q=-0.0 size=N/A time=00:20:17.75 bitrate=N/A speed=13.6x    frame=29349 fps=325 q=-0.0 size=N/A time=00:20:24.09 bitrate=N/A speed=13.6x    frame=29490 fps=325 q=-0.0 size=N/A time=00:20:29.97 bitrate=N/A speed=13.5x    frame=29651 fps=325 q=-0.0 size=N/A time=00:20:36.69 bitrate=N/A speed=13.5x    frame=29778 fps=324 q=-0.0 size=N/A time=00:20:41.99 bitrate=N/A speed=13.5x    frame=29939 fps=324 q=-0.0 size=N/A time=00:20:48.70 bitrate=N/A speed=13.5x    frame=30078 fps=324 q=-0.0 size=N/A time=00:20:54.50 bitrate=N/A speed=13.5x    frame=30252 fps=324 q=-0.0 size=N/A time=00:21:01.76 bitrate=N/A speed=13.5x    frame=30426 fps=324 q=-0.0 size=N/A time=00:21:09.01 bitrate=N/A speed=13.5x    frame=30606 fps=324 q=-0.0 size=N/A time=00:21:16.52 bitrate=N/A speed=13.5x    frame=30746 fps=324 q=-0.0 size=N/A time=00:21:22.36 bitrate=N/A speed=13.5x    frame=30940 fps=324 q=-0.0 size=N/A time=00:21:30.45 bitrate=N/A speed=13.5x    frame=31106 fps=324 q=-0.0 size=N/A time=00:21:37.37 bitrate=N/A speed=13.5x    frame=31275 fps=324 q=-0.0 size=N/A time=00:21:44.42 bitrate=N/A speed=13.5x    frame=31432 fps=324 q=-0.0 size=N/A time=00:21:50.97 bitrate=N/A speed=13.5x    frame=31609 fps=324 q=-0.0 size=N/A time=00:21:58.35 bitrate=N/A speed=13.5x    frame=31774 fps=324 q=-0.0 size=N/A time=00:22:05.24 bitrate=N/A speed=13.5x    frame=31925 fps=324 q=-0.0 size=N/A time=00:22:11.53 bitrate=N/A speed=13.5x    frame=32073 fps=324 q=-0.0 size=N/A time=00:22:17.71 bitrate=N/A speed=13.5x    frame=32246 fps=324 q=-0.0 size=N/A time=00:22:24.92 bitrate=N/A speed=13.5x    frame=32416 fps=324 q=-0.0 size=N/A time=00:22:32.01 bitrate=N/A speed=13.5x    frame=32583 fps=324 q=-0.0 size=N/A time=00:22:38.98 bitrate=N/A speed=13.5x    frame=32730 fps=324 q=-0.0 size=N/A time=00:22:45.11 bitrate=N/A speed=13.5x    frame=32874 fps=324 q=-0.0 size=N/A time=00:22:51.11 bitrate=N/A speed=13.5x    frame=33046 fps=324 q=-0.0 size=N/A time=00:22:58.29 bitrate=N/A speed=13.5x    frame=33180 fps=323 q=-0.0 size=N/A time=00:23:03.88 bitrate=N/A speed=13.5x    frame=33281 fps=323 q=-0.0 size=N/A time=00:23:08.09 bitrate=N/A speed=13.5x    frame=33431 fps=322 q=-0.0 size=N/A time=00:23:14.35 bitrate=N/A speed=13.5x    frame=33573 fps=322 q=-0.0 size=N/A time=00:23:20.27 bitrate=N/A speed=13.4x    frame=33712 fps=322 q=-0.0 size=N/A time=00:23:26.07 bitrate=N/A speed=13.4x    frame=33834 fps=322 q=-0.0 size=N/A time=00:23:31.15 bitrate=N/A speed=13.4x    frame=33945 fps=321 q=-0.0 size=N/A time=00:23:35.78 bitrate=N/A speed=13.4x    frame=34100 fps=321 q=-0.0 size=N/A time=00:23:42.25 bitrate=N/A speed=13.4x    frame=34253 fps=321 q=-0.0 size=N/A time=00:23:48.63 bitrate=N/A speed=13.4x    frame=34375 fps=320 q=-0.0 size=N/A time=00:23:53.72 bitrate=N/A speed=13.4x    frame=34501 fps=320 q=-0.0 size=N/A time=00:23:58.97 bitrate=N/A speed=13.4x    [Parsed_ssim_16 @ 00000283c8a2cc40] SSIM Y:0.994465 (22.568672) U:0.994263 (22.412960) V:0.993908 (22.152345) All:0.994338 (22.470544)
[out#0/null @ 00000283bb8d8a00] video:14903KiB audio:271276KiB subtitle:0KiB other streams:0KiB global headers:0KiB muxing overhead: unknown
frame=34683 fps=320 q=-0.0 Lsize=N/A time=00:24:06.57 bitrate=N/A speed=13.4x    
